<?xml version="1.0" standalone="no"?>
<!DOCTYPE svg PUBLIC "-//W3C//DTD SVG 20010904//EN"
 "http://www.w3.org/TR/2001/REC-SVG-20010904/DTD/svg10.dtd">
<svg version="1.0" xmlns="http://www.w3.org/2000/svg"
 width="855.000000pt" height="481.000000pt" viewBox="0 0 855.000000 481.000000"
 preserveAspectRatio="xMidYMid meet">

<g transform="translate(0.000000,481.000000) scale(0.100000,-0.100000)"
fill="#000000" stroke="none">
<path d="M4075 4784 c-568 -59 -1076 -296 -1471 -689 -652 -648 -872 -1619
-564 -2490 266 -751 902 -1327 1672 -1515 221 -54 313 -65 568 -65 264 0 372
13 596 70 674 173 1241 636 1544 1260 169 347 243 668 243 1050 0 382 -74 703
-243 1050 -303 624 -870 1087 -1544 1260 -203 52 -316 66 -551 70 -115 2 -228
1 -250 -1z"/>
</g>
</svg>
